<svg xmlns="http://www.w3.org/2000/svg" data-name="Layer 1" viewBox="0 0 100 125" x="0px" y="0px"><title>Artboard 33</title><path d="M77.17,24.29A15.49,15.49,0,0,0,65.51,19,15.45,15.45,0,0,0,54.4,23.7l-31,31A14.9,14.9,0,0,0,19,65.31V71A10,10,0,0,0,29,81h5.69a14.91,14.91,0,0,0,10.6-4.39l31-31a15.87,15.87,0,0,0,4.56-9A15.52,15.52,0,0,0,77.17,24.29ZM39.64,71a7,7,0,0,1-4.95,2H29a2,2,0,0,1-2-2V65.31a7,7,0,0,1,2-4.95L51.88,37.54,62.46,48.12Zm33.3-35.44a7.8,7.8,0,0,1-2.29,4.43l-2.52,2.52L57.54,31.88l2.52-2.52A7.46,7.46,0,0,1,65.51,27,7.49,7.49,0,0,1,72.93,35.51Z"/><text x="0" y="115" fill="#000000" font-size="5px" font-weight="bold" font-family="'Helvetica Neue', Helvetica, Arial-Unicode, Arial, Sans-serif">Created by Gregor Cresnar</text><text x="0" y="120" fill="#000000" font-size="5px" font-weight="bold" font-family="'Helvetica Neue', Helvetica, Arial-Unicode, Arial, Sans-serif">from the Noun Project</text></svg>