<svg xmlns="http://www.w3.org/2000/svg" xmlns:xlink="http://www.w3.org/1999/xlink" xmlns:serif="http://www.serif.com/" viewBox="0 0 32 40" version="1.1" xml:space="preserve" style="" x="0px" y="0px" fill-rule="evenodd" clip-rule="evenodd" stroke-linejoin="round" stroke-miterlimit="2"><g transform="matrix(1,0,0,1,0,-240)"><path d="M26,249C26,248.448 25.552,248 25,248L7,248C6.448,248 6,248.448 6,249L6,266C6,268.209 7.791,270 10,270L22,270C24.209,270 26,268.209 26,266C26,260.419 26,249 26,249ZM24,250L24,266C24,267.105 23.105,268 22,268C22,268 10,268 10,268C8.895,268 8,267.105 8,266C8,266 8,250 8,250L24,250ZM19,253L19,265C19,265.552 19.448,266 20,266C20.552,266 21,265.552 21,265L21,253C21,252.448 20.552,252 20,252C19.448,252 19,252.448 19,253ZM11,253L11,265C11,265.552 11.448,266 12,266C12.552,266 13,265.552 13,265L13,253C13,252.448 12.552,252 12,252C11.448,252 11,252.448 11,253ZM15,253L15,265C15,265.552 15.448,266 16,266C16.552,266 17,265.552 17,265L17,253C17,252.448 16.552,252 16,252C15.448,252 15,252.448 15,253ZM12,245L5,245C4.448,245 4,245.448 4,246C4,246.552 4.448,247 5,247L27,247C27.552,247 28,246.552 28,246C28,245.448 27.552,245 27,245L20,245C20,243.343 18.657,242 17,242L15,242C14.204,242 13.441,242.316 12.879,242.879C12.316,243.441 12,244.204 12,245ZM18,245C18,244.448 17.552,244 17,244C17,244 15,244 15,244C14.735,244 14.48,244.105 14.293,244.293C14.105,244.48 14,244.735 14,245L18,245Z"/></g><text x="0" y="47" fill="#000000" font-size="5px" font-weight="bold" font-family="'Helvetica Neue', Helvetica, Arial-Unicode, Arial, Sans-serif">Created by Mila Karmila</text><text x="0" y="52" fill="#000000" font-size="5px" font-weight="bold" font-family="'Helvetica Neue', Helvetica, Arial-Unicode, Arial, Sans-serif">from the Noun Project</text></svg>